Coordinates
version=1
nRows=6
nColumns=107
inDegrees=yes

Units are S.I. units (second, meters, Newtons, ...)
If the header above contains a line with 'inDegrees', this indicates whether rotational values are in degrees (yes) or radians (no).

endheader
time	sternoclavicular_r2	sternoclavicular_r3	unrotscap_r3	unrotscap_r2	acromioclavicular_r2	acromioclavicular_r3	acromioclavicular_r1	unrothum_r1	unrothum_r3	unrothum_r2	elv_angle	shoulder_elv	shoulder1_r2	shoulder_rot	elbow_flexion	pro_sup	deviation	flexion	proximal_distal_r1	proximal_distal_r3	cmc_flexion	cmc_abduction	mp_flexion	ip_flexion	mcp2_flexion	mcp2_abduction	pm2_flexion	md2_flexion	mcp3_flexion	mcp3_abduction	pm3_flexion	md3_flexion	mcp4_flexion	mcp4_abduction	pm4_flexion	md4_flexion	mcp5_flexion	mcp5_abduction	pm5_flexion	md5_flexion	bicpt_tx	bicpt_ty	bicpt_tz	bicpt2_tx	bicpt2_ty	bicpt2_tz	ptpt_tx	ptpt_ty	ptpt_tz	FCUpt_tx	FCUpt_ty	FCUpt_tz	EDCpt_tx	EDCpt_ty	EDCpt_tz	APLpt_tx	APLpt_ty	APLpt_tz	FPLpt_tx	FPLpt_ty	FPLpt_tz	FPLpt2_tx	FPLpt2_ty	FPLpt2_tz	PEC1pt2_tx	PEC1pt2_ty	PEC1pt2_tz	PEC1pt3_tx	PEC1pt3_ty	PEC1pt3_tz	PEC2pt2_tx	PEC2pt2_ty	PEC2pt2_tz	PEC2pt3_tx	PEC2pt3_ty	PEC2pt3_tz	PEC3pt2_tx	PEC3pt2_ty	PEC3pt2_tz	PEC3pt3_tx	PEC3pt3_ty	PEC3pt3_tz	DELT2pt2a_tx	DELT2pt2a_ty	DELT2pt2a_tz	DELT2pt2_tx	DELT2pt2_ty	DELT2pt2_tz	LAT1pt2_tx	LAT1pt2_ty	LAT1pt2_tz	LAT1pt3_tx	LAT1pt3_ty	LAT1pt3_tz	LAT2pt2_tx	LAT2pt2_ty	LAT2pt2_tz	LAT2pt3_tx	LAT2pt3_ty	LAT2pt3_tz	LAT3pt2_tx	LAT3pt2_ty	LAT3pt2_tz	LAT3pt3_tx	LAT3pt3_ty	LAT3pt3_tz
      1.03333333	     -0.31129865	      0.13185141	     -0.13185141	      0.31129865	     -0.06303164	      0.50939957	      0.22897160	     -0.22897160	     -0.50939957	      0.06303164	    102.41308446	     73.70272135	     -1.78744552	    -41.15701694	     31.38291144	     86.28780723	      0.36262493	     -0.38946449	      0.38450220	     -0.19473224	     41.80731060	     -9.08256519	     19.96962521	      6.85672502	     80.86464577	     12.14063233	     81.98087092	     77.45829164	     79.21337895	      1.82190405	     83.17046689	     57.96410897	     67.74795949	    -12.74980981	     93.38804696	     44.87018674	     76.21017752	    -14.16240287	    447.99933169	      5.47259031	      0.00093805	     -0.03119696	     -0.00487938	      0.01421006	     -0.01872532	     -0.00102670	      0.00117430	     -0.06902263	     -0.00700095	      0.01277108	     -0.18222798	      0.00009176	     -0.01035451	      0.00359382	     -0.00076648	      0.00027145	      0.00010858	      0.00054290	      0.00034746	      0.00104237	      0.00058633	     -0.00000773	     -0.00007415	     -0.00008899	      0.00241581	      0.00847582	      0.00589622	     -0.00790258	      0.01908083	     -0.01809813	      0.00241581	      0.00847582	      0.00589622	      0.00053230	      0.01768867	     -0.00929474	      0.00385354	      0.00471330	      0.01573228	      0.00000000	      0.00726151	      0.00000000	     -0.00691987	     -0.03197882	     -0.00598438	      0.02299143	     -0.00115312	     -0.01360391	     -0.00085987	      0.01441299	     -0.00589622	      0.00237487	      0.02080056	     -0.01719732	     -0.00577338	      0.01248853	     -0.00528203	     -0.01203812	      0.02636922	     -0.02952206	     -0.02260219	      0.01396258	     -0.00708366	     -0.01498623	      0.03046382	     -0.03689234
      1.06666667	     -0.31101092	      0.13172955	     -0.13172955	      0.31101092	     -0.06297339	      0.50892875	      0.22875997	     -0.22875997	     -0.50892875	      0.06297339	    102.20985548	     73.63460080	     -1.78389851	    -40.55156125	     31.88639290	     86.36879413	      0.36569869	     -0.32106872	      0.38684165	     -0.16053436	     41.41297115	     -9.65664994	     19.25072846	      6.87964786	     72.02681620	     12.42793408	     80.41340871	     75.47996109	     72.03301833	      3.15854761	     81.80251659	     55.25512598	     61.00685013	    -12.17189105	     90.54996130	     43.54260759	     66.53201942	    -14.18119965	    444.90837986	      5.47192286	      0.00095470	     -0.03125467	     -0.00488867	      0.01420163	     -0.01886210	     -0.00101279	      0.00116832	     -0.06902650	     -0.00700747	      0.01278039	     -0.18222523	      0.00009401	     -0.01036423	      0.00359827	     -0.00076910	      0.00024218	      0.00009687	      0.00048435	      0.00030999	      0.00092996	      0.00052310	     -0.00000842	     -0.00008253	     -0.00009903	      0.00241358	      0.00846799	      0.00589077	     -0.00789527	      0.01906320	     -0.01808140	      0.00241358	      0.00846799	      0.00589077	      0.00053181	      0.01767232	     -0.00928615	      0.00385090	      0.00470894	      0.01572556	      0.00000000	      0.00724801	      0.00000000	     -0.00691348	     -0.03194926	     -0.00597317	      0.02281099	     -0.00113098	     -0.01324214	     -0.00085907	      0.01439967	     -0.00589077	      0.00237267	      0.02078134	     -0.01718142	     -0.00576805	      0.01247698	     -0.00527715	     -0.01202699	      0.02634485	     -0.02949477	     -0.02258130	      0.01394968	     -0.00707711	     -0.01497238	      0.03043566	     -0.03685824
      1.10000000	     -0.31015468	      0.13136688	     -0.13136688	      0.31015468	     -0.06280001	      0.50752762	      0.22813017	     -0.22813017	     -0.50752762	      0.06280001	    102.27809291	     73.43187703	     -1.78508947	    -40.83636917	     32.28507416	     86.49316603	      0.36099976	     -0.26828706	      0.38325903	     -0.13414353	     40.88369145	    -10.14841800	     18.60860640	      6.42465881	     62.80203697	     12.65976770	     76.84132706	     73.64524467	     63.76970180	      4.20260181	     78.91822819	     52.96583600	     52.84408738	    -11.26491943	     86.13834184	     42.75956001	     55.63255101	    -14.19417783	    440.41189285	      5.51005295	      0.00096789	     -0.03130036	     -0.00489603	      0.01418865	     -0.01897040	     -0.00099142	      0.00115913	     -0.06903244	     -0.00701749	      0.01279469	     -0.18222100	      0.00009747	     -0.01037916	      0.00360511	     -0.00077312	      0.00021422	      0.00008569	      0.00042844	      0.00027420	      0.00082260	      0.00046271	     -0.00000927	     -0.00009350	     -0.00011220	      0.00240694	      0.00844467	      0.00587456	     -0.00787354	      0.01901071	     -0.01803162	      0.00240694	      0.00844467	      0.00587456	      0.00053034	      0.01762367	     -0.00926058	      0.00384303	      0.00469598	      0.01570550	      0.00000000	      0.00720791	      0.00000000	     -0.00689444	     -0.03186130	     -0.00593985	      0.02289647	     -0.00114139	     -0.01341196	     -0.00085671	      0.01436002	     -0.00587456	      0.00236614	      0.02072413	     -0.01713412	     -0.00575217	      0.01244263	     -0.00526262	     -0.01199388	      0.02627232	     -0.02941357	     -0.02251913	      0.01391127	     -0.00705763	     -0.01493116	      0.03035187	     -0.03675677
      1.13333333	     -0.30839292	      0.13062068	     -0.13062068	      0.30839292	     -0.06244329	      0.50464473	      0.22683433	     -0.22683433	     -0.50464473	      0.06244329	    102.78270811	     73.01476459	     -1.79389667	    -42.71567472	     32.61573905	     86.66869162	      0.33106117	     -0.26521496	      0.35958760	     -0.13260748	     40.07075319	    -10.08420689	     17.83168767	      6.77308895	     53.21362633	     12.69903783	     70.63143018	     68.80905140	     55.13667985	      4.97153766	     74.48007820	     49.81652876	     44.52179181	    -10.09029054	     79.47214075	     40.20533068	     43.85660665	    -14.19553249	    432.64682463	      5.46542557	      0.00097883	     -0.03133826	     -0.00490214	      0.01417027	     -0.01906023	     -0.00096121	      0.00114616	     -0.06904083	     -0.00703163	      0.01281489	     -0.18221503	      0.00010238	     -0.01040022	      0.00361478	     -0.00077881	      0.00021246	      0.00008498	      0.00042492	      0.00027195	      0.00081585	      0.00045891	     -0.00001039	     -0.00010973	     -0.00013168	      0.00239326	      0.00839671	      0.00584119	     -0.00782881	      0.01890273	     -0.01792920	      0.00239326	      0.00839671	      0.00584119	      0.00052733	      0.01752356	     -0.00920798	      0.00382679	      0.00466930	      0.01566392	      0.00000000	      0.00712577	      0.00000000	     -0.00685528	     -0.03168032	     -0.00587160	      0.02343354	     -0.00121040	     -0.01454860	     -0.00085184	      0.01427845	     -0.00584119	      0.00235270	      0.02060641	     -0.01703679	     -0.00571949	      0.01237196	     -0.00523273	     -0.01192575	      0.02612308	     -0.02924649	     -0.02239121	      0.01383225	     -0.00701754	     -0.01484635	      0.03017946	     -0.03654798
      1.16666667	     -0.30844671	      0.13064347	     -0.13064347	      0.30844671	     -0.06245418	      0.50473275	      0.22687390	     -0.22687390	     -0.50473275	      0.06245418	    102.43165071	     73.02750003	     -1.78776956	    -41.39394464	     33.12712782	     85.64361683	      0.35018771	     -0.13657877	      0.37487935	     -0.06828939	     39.14416473	    -10.72096767	     17.06743946	      6.02727791	     42.74375311	     12.58847093	     63.74755398	     61.09945698	     45.53701221	      5.46634228	     67.94927912	     45.26633969	     35.54254992	     -8.59941401	     70.57210394	     36.77826551	     32.45786855	    -14.12812547	    420.16030586	      5.44254478	      0.00099574	     -0.03139688	     -0.00491158	      0.01427660	     -0.01919915	     -0.00113698	      0.00122190	     -0.06899185	     -0.00694905	      0.01269708	     -0.18224979	      0.00007403	     -0.01027721	      0.00355848	     -0.00074581	      0.00012412	      0.00004965	      0.00024823	      0.00015887	      0.00047661	      0.00026809	     -0.00001139	     -0.00012735	     -0.00015281	      0.00239368	      0.00839817	      0.00584220	     -0.00783018	      0.01890602	     -0.01793232	      0.00239368	      0.00839817	      0.00584220	      0.00052742	      0.01752661	     -0.00920959	      0.00382729	      0.00467012	      0.01566520	      0.00000000	      0.00712827	      0.00000000	     -0.00685648	     -0.03168585	     -0.00587367	      0.02306072	     -0.00116181	     -0.01374628	     -0.00085199	      0.01428095	     -0.00584220	      0.00235311	      0.02061000	     -0.01703976	     -0.00572049	      0.01237411	     -0.00523364	     -0.01192784	      0.02612764	     -0.02925160	     -0.02239512	      0.01383467	     -0.00701876	     -0.01484894	      0.03018473	     -0.03655435
      1.20000000	     -0.30845401	      0.13064656	     -0.13064656	      0.30845401	     -0.06245566	      0.50474470	      0.22687927	     -0.22687927	     -0.50474470	      0.06245566	    102.48910950	     73.02922962	     -1.78877241	    -41.20848966	     33.04907959	     83.91125651	      0.33476777	     -0.11643434	      0.36259760	     -0.05821717	     38.12014928	    -11.26383589	     16.42304393	      5.75237222	     33.80898218	     12.13098651	     56.15814876	     50.46125106	     37.08695722	      5.12289841	     59.38923327	     39.65392255	     27.60593995	     -7.49510140	     60.01423091	     31.97987707	     22.51392924	    -13.98525048	    406.34917260	      5.38244589	      0.00099316	     -0.03138793	     -0.00491014	      0.01445085	     -0.01917794	     -0.00143069	      0.00134990	     -0.06890908	     -0.00680950	      0.01249872	     -0.18230785	      0.00002790	     -0.01006933	      0.00346406	     -0.00069133	      0.00010778	      0.00004311	      0.00021555	      0.00013795	      0.00041386	      0.00023280	     -0.00001219	     -0.00014571	     -0.00017485	      0.00239374	      0.00839837	      0.00584234	     -0.00783036	      0.01890647	     -0.01793275	      0.00239374	      0.00839837	      0.00584234	      0.00052743	      0.01752703	     -0.00920981	      0.00382735	      0.00467023	      0.01566537	      0.00000000	      0.00712861	      0.00000000	     -0.00685664	     -0.03168660	     -0.00587396	      0.02300654	     -0.00115501	     -0.01363481	     -0.00085201	      0.01428128	     -0.00584234	      0.00235317	      0.02061049	     -0.01704017	     -0.00572063	      0.01237441	     -0.00523377	     -0.01192812	      0.02612826	     -0.02925229	     -0.02239565	      0.01383499	     -0.00701893	     -0.01484929	      0.03018544	     -0.03655522
